# xmcd CD database file
#
# Track frame offsets:
#	150
#	7932
#	15837
#	45387
#	59340
#	63765
#	66372
#	103822
#	109007
#	133332
#	137292
#	155930
#	175875
#	181590
#	187975
#
# Disc length: 2945 seconds
#
# Revision: 0
# Processed by: cddbd v1.5.2PL0 Copyright (c) Steve Scherf et al.
# Submitted via: CDex 1.51
#
DISCID=be0b7f0f
DTITLE=Blöchlinger, Urs - Just the One
DYEAR=1994
DGENRE=Jazz
TTITLE0=Regozenter
TTITLE1=Hope so Flic
TTITLE2=Innquisitor
TTITLE3=Intime 2
TTITLE4=S'chunt Bsuech
TTITLE5=Cadavre Exquis
TTITLE6=Huber
TTITLE7=Just the One
TTITLE8=Lord of the Flies
TTITLE9=An Herberts breiter Brust
TTITLE10=Lee minor Complex
TTITLE11=Hitchcock
TTITLE12=Who is who
TTITLE13=Early Morning Raga
TTITLE14=Ende Meier
EXTD=YEAR: 1994
EXTT0=
EXTT1=
EXTT2=
EXTT3=
EXTT4=
EXTT5=
EXTT6=
EXTT7=
EXTT8=
EXTT9=
EXTT10=
EXTT11=
EXTT12=
EXTT13=
EXTT14=
PLAYORDER=
